# Blender v2.78 (sub 0) OBJ File: ''
# www.blender.org
mtllib cube.mtl
o Cone.004
v 2.306012 0.679479 0.000000
v 3.482904 0.000000 0.000000
v 2.306012 0.339739 -0.588446
v 2.306012 -0.339739 -0.588446
v 2.306012 -0.679479 -0.000000
v 2.306012 -0.339739 0.588446
v 2.306012 0.339739 0.588446
vn 0.4472 0.7746 -0.4472
vn 0.4472 0.0000 -0.8944
vn 0.4472 -0.7746 -0.4472
vn 0.4472 -0.7746 0.4472
vn 0.4472 -0.0000 0.8944
vn 0.4472 0.7746 0.4472
vn -1.0000 0.0000 0.0000
usemtl None
s 1
f 1//1 2//1 3//1
f 3//2 2//2 4//2
f 4//3 2//3 5//3
f 5//4 2//4 6//4
f 6//5 2//5 7//5
f 7//6 2//6 1//6
f 7//7 1//7 3//7 4//7
f 5//7 6//7 7//7 4//7
o Cube.001
v 1.000000 -1.000000 -1.000000
v 1.000000 -1.000000 1.000000
v -1.000000 -1.000000 1.000000
v -1.000000 -1.000000 -1.000000
v 1.000000 1.000000 -0.999999
v -1.000000 1.000000 -1.000000
v -1.000000 1.000000 1.000000
v 0.999999 1.000000 1.000001
vn 0.0000 -1.0000 -0.0000
vn -0.0000 1.0000 0.0000
vn 1.0000 0.0000 0.0000
vn -0.0000 -0.0000 1.0000
vn -1.0000 -0.0000 0.0000
vn 0.0000 0.0000 -1.0000
usemtl Material.001
s 1
f 8//8 9//8 10//8 11//8
f 12//9 13//9 14//9 15//9
f 8//10 12//10 15//10 9//10
f 9//11 15//11 14//11 10//11
f 10//12 14//12 13//12 11//12
f 12//13 8//13 11//13 13//13
o Cone.003
v -2.306012 -0.679479 -0.000000
v -3.482904 0.000000 0.000000
v -2.306012 -0.339739 -0.588446
v -2.306012 0.339739 -0.588446
v -2.306012 0.679479 0.000000
v -2.306012 0.339739 0.588446
v -2.306012 -0.339739 0.588446
vn -0.4472 -0.7746 -0.4472
vn -0.4472 0.0000 -0.8944
vn -0.4472 0.7746 -0.4472
vn -0.4472 0.7746 0.4472
vn -0.4472 -0.0000 0.8944
vn -0.4472 -0.7746 0.4472
vn 1.0000 0.0000 0.0000
usemtl None
s 1
f 16//14 17//14 18//14
f 18//15 17//15 19//15
f 19//16 17//16 20//16
f 20//17 17//17 21//17
f 21//18 17//18 22//18
f 22//19 17//19 16//19
f 21//20 22//20 16//20 20//20
f 19//20 20//20 16//20 18//20
o Cone.002
v 0.000000 -0.679479 -2.306012
v 0.000000 0.000001 -3.482904
v 0.588446 -0.339739 -2.306012
v 0.588446 0.339739 -2.306012
v 0.000000 0.679479 -2.306012
v -0.588446 0.339739 -2.306012
v -0.588446 -0.339739 -2.306012
vn 0.4472 -0.7746 -0.4472
vn 0.8944 0.0000 -0.4472
vn 0.4472 0.7746 -0.4472
vn -0.4472 0.7746 -0.4472
vn -0.8944 0.0000 -0.4472
vn -0.4472 -0.7746 -0.4472
vn 0.0000 0.0000 1.0000
usemtl None
s 1
f 23//21 24//21 25//21
f 25//22 24//22 26//22
f 26//23 24//23 27//23
f 27//24 24//24 28//24
f 28//25 24//25 29//25
f 29//26 24//26 23//26
f 26//27 27//27 23//27 25//27
f 28//27 29//27 23//27 27//27
o Cone.001
v 0.000000 0.679479 2.306012
v 0.000000 -0.000001 3.482904
v 0.588446 0.339739 2.306012
v 0.588446 -0.339739 2.306012
v 0.000000 -0.679479 2.306012
v -0.588446 -0.339739 2.306012
v -0.588446 0.339739 2.306012
vn 0.4472 0.7746 0.4472
vn 0.8944 0.0000 0.4472
vn 0.4472 -0.7746 0.4472
vn -0.4472 -0.7746 0.4472
vn -0.8944 0.0000 0.4472
vn -0.4472 0.7746 0.4472
vn -0.0000 0.0000 -1.0000
usemtl None
s 1
f 30//28 31//28 32//28
f 32//29 31//29 33//29
f 33//30 31//30 34//30
f 34//31 31//31 35//31
f 35//32 31//32 36//32
f 36//33 31//33 30//33
f 35//34 36//34 30//34 34//34
f 33//34 34//34 30//34 32//34
